<?xml version="1.0" standalone="no"?>
<!DOCTYPE svg PUBLIC "-//W3C//DTD SVG 20010904//EN"
 "http://www.w3.org/TR/2001/REC-SVG-20010904/DTD/svg10.dtd">
<svg version="1.0" xmlns="http://www.w3.org/2000/svg"
 width="1024.000000pt" height="1024.000000pt" viewBox="0 0 1024.000000 1024.000000"
 preserveAspectRatio="xMidYMid meet">

<g transform="translate(0.000000,1024.000000) scale(0.100000,-0.100000)"
fill="#000000" stroke="none">
<path d="M5359 8077 c-187 -50 -365 -169 -489 -326 -159 -202 -226 -373 -218
-561 4 -113 11 -121 110 -127 60 -4 78 -1 104 15 35 23 44 52 44 146 0 75 20
145 69 246 54 113 185 241 307 302 59 29 116 50 160 57 49 9 288 11 829 9 837
-4 787 0 913 -68 127 -67 235 -179 292 -303 67 -142 64 -100 68 -998 3 -910 4
-899 -64 -1038 -28 -56 -58 -96 -133 -170 -106 -108 -169 -147 -291 -180 -72
-20 -97 -21 -800 -21 -820 0 -803 -1 -958 76 -75 37 -110 62 -176 127 -123
122 -183 238 -206 399 -21 140 -45 163 -163 156 -58 -3 -73 -8 -88 -27 -26
-32 -25 -106 5 -223 46 -183 121 -332 223 -446 l55 -62 -1304 0 -1303 1 -66
22 c-188 64 -327 214 -380 413 -18 63 -22 109 -23 234 -1 174 9 231 57 325 72
139 251 263 394 272 57 4 247 -18 258 -29 2 -2 13 -45 24 -95 11 -50 32 -115
47 -145 46 -90 134 -198 219 -266 92 -74 167 -113 280 -144 77 -21 95 -22 480
-20 l400 3 29 29 c29 29 30 30 37 180 4 83 9 153 12 156 3 3 148 8 324 10 175
3 337 7 360 10 54 7 80 31 92 86 14 63 -4 116 -50 143 -32 19 -57 20 -384 25
l-350 5 -3 168 -2 167 353 0 c352 0 354 0 388 23 74 49 74 165 0 214 -34 23
-36 23 -377 23 -234 0 -345 3 -349 11 -4 6 -10 76 -14 155 -8 156 -18 183 -72
211 -31 16 -743 18 -838 2 -176 -28 -400 -187 -500 -356 -40 -68 -91 -201
-105 -275 -7 -36 -8 -37 -39 -30 -54 12 -269 7 -327 -7 -116 -28 -270 -113
-362 -199 -192 -178 -267 -420 -240 -772 20 -251 81 -392 242 -551 151 -149
308 -236 465 -259 58 -8 711 -10 2390 -8 2606 4 2332 -6 2520 86 265 130 460
334 529 552 43 135 46 202 40 1048 -6 830 -8 873 -51 1001 -58 174 -207 366
-362 466 -77 50 -182 95 -299 128 -76 21 -90 22 -862 24 l-785 2 -86 -22z"/>
<path d="M6047 7514 c-191 -35 -371 -132 -541 -294 -105 -100 -168 -184 -227
-305 -78 -160 -93 -228 -93 -435 0 -149 3 -187 21 -257 63 -237 190 -435 363
-567 163 -125 391 -207 665 -241 66 -8 245 19 343 52 452 152 759 603 729
1073 -26 408 -318 794 -701 929 -169 60 -383 77 -559 45z m385 -259 c76 -16
211 -76 278 -124 152 -109 269 -275 316 -446 25 -93 30 -275 9 -376 -33 -167
-92 -276 -215 -399 -255 -256 -614 -317 -935 -160 -252 124 -413 349 -446 624
-52 428 248 822 681 891 93 15 205 11 312 -10z"/>
<path d="M6516 6789 c-53 -41 -56 -60 -56 -299 0 -238 6 -272 51 -302 63 -41
142 -26 179 34 18 31 20 50 20 260 0 250 -6 279 -60 312 -39 23 -101 21 -134
-5z"/>
<path d="M5841 6784 c-45 -32 -51 -67 -51 -310 0 -214 1 -229 21 -261 44 -71
153 -73 204 -5 18 25 20 46 23 231 5 253 0 285 -43 328 -28 28 -40 33 -82 33
-29 0 -58 -7 -72 -16z"/>
<path d="M1502 3744 c-94 -25 -164 -66 -237 -139 -113 -113 -169 -253 -181
-454 -25 -402 203 -681 556 -681 98 0 167 17 253 63 109 58 227 217 227 308
l0 37 -77 17 c-43 10 -94 18 -113 19 -33 1 -37 -3 -67 -59 -57 -107 -135 -151
-253 -143 -53 4 -79 12 -110 32 -167 110 -208 447 -79 647 109 170 361 158
438 -21 17 -39 26 -50 45 -50 48 0 192 23 204 32 41 34 -18 171 -112 263 -70
69 -137 108 -221 130 -73 19 -202 18 -273 -1z"/>
<path d="M2760 3753 c-49 -7 -146 -46 -195 -78 -121 -77 -211 -215 -241 -370
-20 -106 -19 -294 2 -387 50 -227 188 -382 384 -433 93 -25 246 -23 331 4 177
56 312 208 366 411 21 78 23 294 4 385 -49 239 -216 420 -429 464 -51 10 -169
13 -222 4z m227 -274 c127 -62 203 -243 182 -434 -16 -143 -75 -249 -169 -299
-74 -40 -180 -42 -254 -5 -84 41 -151 135 -177 246 -17 74 -15 200 5 268 43
144 108 217 221 246 46 12 144 1 192 -22z"/>
<path d="M7451 3744 c-83 -22 -170 -73 -233 -137 -68 -69 -107 -134 -144 -242
-26 -75 -28 -91 -29 -245 0 -187 15 -272 68 -375 61 -117 199 -226 332 -261
64 -18 226 -18 290 0 154 41 297 166 340 296 28 84 21 94 -92 120 -66 15 -102
19 -113 13 -8 -6 -27 -35 -41 -65 -33 -67 -74 -103 -141 -123 -112 -33 -199
-14 -274 60 -60 59 -87 122 -104 243 -42 307 138 537 371 472 51 -14 114 -73
140 -130 26 -57 20 -55 152 -39 75 10 91 15 104 35 12 19 13 30 3 59 -22 66
-62 126 -128 191 -103 101 -211 144 -362 143 -47 0 -109 -7 -139 -15z"/>
<path d="M3668 3743 c-34 -9 -38 -68 -38 -648 0 -500 2 -573 16 -593 14 -20
23 -22 113 -22 70 0 102 4 110 13 7 10 12 136 13 403 l3 389 22 -47 c23 -47
76 -136 255 -428 52 -85 115 -189 140 -230 25 -41 56 -81 69 -87 14 -7 63 -13
117 -13 147 0 133 -69 130 640 -2 464 -6 602 -16 612 -7 7 -49 14 -105 16
-140 6 -130 43 -125 -433 1 -218 0 -391 -5 -383 -55 96 -210 356 -285 478 -52
85 -116 191 -143 236 -29 49 -58 85 -74 92 -25 11 -160 15 -197 5z"/>
<path d="M4894 3736 c-18 -14 -19 -34 -22 -608 -1 -326 0 -603 3 -614 8 -33
55 -47 140 -42 41 3 81 11 90 18 13 11 15 63 15 398 l0 385 138 -224 c76 -123
181 -296 234 -384 58 -98 104 -165 119 -172 37 -19 204 -17 223 3 14 14 16 84
16 619 0 587 -1 605 -19 615 -30 15 -196 13 -210 -3 -7 -10 -12 -135 -13 -400
l-3 -386 -134 222 c-74 122 -181 300 -239 395 -73 121 -112 176 -129 183 -39
15 -186 11 -209 -5z"/>
<path d="M6116 3718 c-14 -20 -16 -95 -16 -614 0 -554 1 -592 18 -607 15 -14
62 -16 370 -18 268 -1 356 1 367 11 11 10 15 35 15 109 0 53 -5 103 -10 111
-8 13 -50 15 -253 18 l-244 3 -7 52 c-8 67 -8 146 0 186 l7 31 217 0 c120 0
225 3 234 6 13 5 16 24 16 108 0 66 -4 106 -12 114 -9 9 -75 12 -235 12 l-223
0 0 130 0 130 243 0 c176 0 246 3 255 12 8 8 12 47 12 108 0 61 -4 100 -12
108 -9 9 -105 12 -369 12 l-358 0 -15 -22z"/>
<path d="M8244 3726 c-16 -12 -19 -27 -19 -105 0 -127 -3 -125 188 -131 l152
-5 3 -488 c2 -406 5 -491 16 -503 11 -10 41 -14 109 -14 79 0 97 3 111 18 15
17 16 63 16 488 0 258 0 476 0 485 0 14 22 17 155 22 99 3 161 10 170 17 11 9
15 36 15 101 0 140 41 129 -468 129 -354 0 -432 -2 -448 -14z"/>
</g>
</svg>
